<svg width="20" height="19" viewBox="0 0 20 19" fill="none" xmlns="http://www.w3.org/2000/svg">
<path d="M3.33008 18.9531C2.30794 18.9531 1.53971 18.6992 1.02539 18.1914C0.517578 17.6901 0.263672 16.9349 0.263672 15.9258V4.00195C0.263672 2.99284 0.517578 2.23763 1.02539 1.73633C1.53971 1.22852 2.30794 0.974609 3.33008 0.974609H16.6699C17.6921 0.974609 18.457 1.22852 18.9648 1.73633C19.4727 2.23763 19.7266 2.99284 19.7266 4.00195V15.9258C19.7266 16.9349 19.4727 17.6901 18.9648 18.1914C18.457 18.6992 17.6921 18.9531 16.6699 18.9531H3.33008ZM3.18359 17.3809H16.7969C17.2331 17.3809 17.5684 17.2637 17.8027 17.0293C18.0371 16.8014 18.1543 16.4629 18.1543 16.0137V6.80469C18.1543 6.35547 18.0371 6.01693 17.8027 5.78906C17.5684 5.55469 17.2331 5.4375 16.7969 5.4375H3.18359C2.75391 5.4375 2.42188 5.55469 2.1875 5.78906C1.95312 6.01693 1.83594 6.35547 1.83594 6.80469V16.0137C1.83594 16.4629 1.95312 16.8014 2.1875 17.0293C2.42188 17.2637 2.75391 17.3809 3.18359 17.3809ZM8.0957 8.95312C7.92643 8.95312 7.80599 8.92057 7.73438 8.85547C7.66927 8.79036 7.63672 8.67318 7.63672 8.50391V7.92773C7.63672 7.75846 7.66927 7.64453 7.73438 7.58594C7.80599 7.52083 7.92643 7.48828 8.0957 7.48828H8.67188C8.84115 7.48828 8.95833 7.52083 9.02344 7.58594C9.09505 7.64453 9.13086 7.75846 9.13086 7.92773V8.50391C9.13086 8.67318 9.09505 8.79036 9.02344 8.85547C8.95833 8.92057 8.84115 8.95312 8.67188 8.95312H8.0957ZM11.3379 8.95312C11.1686 8.95312 11.0514 8.92057 10.9863 8.85547C10.9212 8.79036 10.8887 8.67318 10.8887 8.50391V7.92773C10.8887 7.75846 10.9212 7.64453 10.9863 7.58594C11.0514 7.52083 11.1686 7.48828 11.3379 7.48828H11.9141C12.0898 7.48828 12.2103 7.52083 12.2754 7.58594C12.3405 7.64453 12.373 7.75846 12.373 7.92773V8.50391C12.373 8.67318 12.3405 8.79036 12.2754 8.85547C12.2103 8.92057 12.0898 8.95312 11.9141 8.95312H11.3379ZM14.5898 8.95312C14.4141 8.95312 14.2936 8.92057 14.2285 8.85547C14.1634 8.79036 14.1309 8.67318 14.1309 8.50391V7.92773C14.1309 7.75846 14.1634 7.64453 14.2285 7.58594C14.2936 7.52083 14.4141 7.48828 14.5898 7.48828H15.1562C15.332 7.48828 15.4525 7.52083 15.5176 7.58594C15.5827 7.64453 15.6152 7.75846 15.6152 7.92773V8.50391C15.6152 8.67318 15.5827 8.79036 15.5176 8.85547C15.4525 8.92057 15.332 8.95312 15.1562 8.95312H14.5898ZM4.85352 12.1465C4.67773 12.1465 4.55729 12.1139 4.49219 12.0488C4.42708 11.9837 4.39453 11.8665 4.39453 11.6973V11.1309C4.39453 10.9551 4.42708 10.8379 4.49219 10.7793C4.55729 10.7142 4.67773 10.6816 4.85352 10.6816H5.42969C5.59896 10.6816 5.71615 10.7142 5.78125 10.7793C5.84635 10.8379 5.87891 10.9551 5.87891 11.1309V11.6973C5.87891 11.8665 5.84635 11.9837 5.78125 12.0488C5.71615 12.1139 5.59896 12.1465 5.42969 12.1465H4.85352ZM8.0957 12.1465C7.92643 12.1465 7.80599 12.1139 7.73438 12.0488C7.66927 11.9837 7.63672 11.8665 7.63672 11.6973V11.1309C7.63672 10.9551 7.66927 10.8379 7.73438 10.7793C7.80599 10.7142 7.92643 10.6816 8.0957 10.6816H8.67188C8.84115 10.6816 8.95833 10.7142 9.02344 10.7793C9.09505 10.8379 9.13086 10.9551 9.13086 11.1309V11.6973C9.13086 11.8665 9.09505 11.9837 9.02344 12.0488C8.95833 12.1139 8.84115 12.1465 8.67188 12.1465H8.0957ZM11.3379 12.1465C11.1686 12.1465 11.0514 12.1139 10.9863 12.0488C10.9212 11.9837 10.8887 11.8665 10.8887 11.6973V11.1309C10.8887 10.9551 10.9212 10.8379 10.9863 10.7793C11.0514 10.7142 11.1686 10.6816 11.3379 10.6816H11.9141C12.0898 10.6816 12.2103 10.7142 12.2754 10.7793C12.3405 10.8379 12.373 10.9551 12.373 11.1309V11.6973C12.373 11.8665 12.3405 11.9837 12.2754 12.0488C12.2103 12.1139 12.0898 12.1465 11.9141 12.1465H11.3379ZM14.5898 12.1465C14.4141 12.1465 14.2936 12.1139 14.2285 12.0488C14.1634 11.9837 14.1309 11.8665 14.1309 11.6973V11.1309C14.1309 10.9551 14.1634 10.8379 14.2285 10.7793C14.2936 10.7142 14.4141 10.6816 14.5898 10.6816H15.1562C15.332 10.6816 15.4525 10.7142 15.5176 10.7793C15.5827 10.8379 15.6152 10.9551 15.6152 11.1309V11.6973C15.6152 11.8665 15.5827 11.9837 15.5176 12.0488C15.4525 12.1139 15.332 12.1465 15.1562 12.1465H14.5898ZM4.85352 15.3398C4.67773 15.3398 4.55729 15.3105 4.49219 15.252C4.42708 15.1868 4.39453 15.0664 4.39453 14.8906V14.3242C4.39453 14.1484 4.42708 14.0312 4.49219 13.9727C4.55729 13.9076 4.67773 13.875 4.85352 13.875H5.42969C5.59896 13.875 5.71615 13.9076 5.78125 13.9727C5.84635 14.0312 5.87891 14.1484 5.87891 14.3242V14.8906C5.87891 15.0664 5.84635 15.1868 5.78125 15.252C5.71615 15.3105 5.59896 15.3398 5.42969 15.3398H4.85352ZM8.0957 15.3398C7.92643 15.3398 7.80599 15.3105 7.73438 15.252C7.66927 15.1868 7.63672 15.0664 7.63672 14.8906V14.3242C7.63672 14.1484 7.66927 14.0312 7.73438 13.9727C7.80599 13.9076 7.92643 13.875 8.0957 13.875H8.67188C8.84115 13.875 8.95833 13.9076 9.02344 13.9727C9.09505 14.0312 9.13086 14.1484 9.13086 14.3242V14.8906C9.13086 15.0664 9.09505 15.1868 9.02344 15.252C8.95833 15.3105 8.84115 15.3398 8.67188 15.3398H8.0957ZM11.3379 15.3398C11.1686 15.3398 11.0514 15.3105 10.9863 15.252C10.9212 15.1868 10.8887 15.0664 10.8887 14.8906V14.3242C10.8887 14.1484 10.9212 14.0312 10.9863 13.9727C11.0514 13.9076 11.1686 13.875 11.3379 13.875H11.9141C12.0898 13.875 12.2103 13.9076 12.2754 13.9727C12.3405 14.0312 12.373 14.1484 12.373 14.3242V14.8906C12.373 15.0664 12.3405 15.1868 12.2754 15.252C12.2103 15.3105 12.0898 15.3398 11.9141 15.3398H11.3379Z" fill="#E4E4E5"/>
</svg>
