<svg width="24" height="24" viewBox="0 0 24 24" fill="none" xmlns="http://www.w3.org/2000/svg">
<path d="M9 12C9 12.5523 8.55228 13 8 13C7.44772 13 7 12.5523 7 12C7 11.4477 7.44772 11 8 11C8.55228 11 9 11.4477 9 12Z" fill="white"/>
<path d="M13 12C13 12.5523 12.5523 13 12 13C11.4477 13 11 12.5523 11 12C11 11.4477 11.4477 11 12 11C12.5523 11 13 11.4477 13 12Z" fill="white"/>
<path d="M17 12C17 12.5523 16.5523 13 16 13C15.4477 13 15 12.5523 15 12C15 11.4477 15.4477 11 16 11C16.5523 11 17 11.4477 17 12Z" fill="white"/>
<path fill-rule="evenodd" clip-rule="evenodd" d="M21 12C21 7.02944 16.9706 3 12 3C7.02944 3 3 7.02944 3 12C3 13.4386 3.33799 14.8 3.93946 16.0076C4.02921 16.1878 4.04825 16.3718 4.00683 16.5266L3.50819 18.3903C3.16683 19.666 4.33398 20.8331 5.60975 20.4918L7.47341 19.9932C7.62821 19.9517 7.8122 19.9708 7.9924 20.0606C9.19998 20.662 10.5614 21 12 21C16.9706 21 21 16.9706 21 12ZM12 4.25581C16.277 4.25581 19.7442 7.72301 19.7442 12C19.7442 16.277 16.277 19.7442 12 19.7442C10.76 19.7442 9.58985 19.4533 8.5523 18.9364C8.13587 18.7291 7.63791 18.6492 7.14882 18.7801L5.28515 19.2787C4.94288 19.3703 4.62974 19.0571 4.72132 18.7148L5.21997 16.8512C5.35083 16.3621 5.27096 15.8641 5.06355 15.4477C4.54676 14.4102 4.25581 13.24 4.25581 12C4.25581 7.72301 7.72301 4.25581 12 4.25581Z" fill="white"/>
</svg>
