<svg width="24" height="24" viewBox="0 0 24 24" fill="none" xmlns="http://www.w3.org/2000/svg">
<path fill-rule="evenodd" clip-rule="evenodd" d="M12.3457 3.13116C11.6951 2.80239 10.9062 3.11557 10.6509 3.80392L8.55889 9.44299H5.44993C4.09687 9.44299 3 10.5518 3 11.9195V18.5235C3 19.8913 4.09687 21 5.44993 21H17.1881C18.3486 21 19.3499 20.177 19.5866 19.0286L20.9476 12.4246C21.2646 10.8867 20.1032 9.44299 18.5492 9.44299H14.3411L14.9441 7.61416C15.4582 6.05525 14.7601 4.35145 13.306 3.61658L12.3457 3.13116ZM10.0882 10.0227L12.0209 4.8129L12.5756 5.09327C13.3026 5.46072 13.6517 6.31261 13.3946 7.09208L12.7916 8.92089C12.4391 9.98997 13.2263 11.094 14.3411 11.094H18.5492C19.0672 11.094 19.4543 11.5753 19.3487 12.0879L19.2132 12.745H16.0663C15.6153 12.745 15.2496 13.1146 15.2496 13.5705C15.2496 14.0264 15.6153 14.396 16.0663 14.396H18.873L18.5327 16.047H16.0663C15.6153 16.047 15.2496 16.4166 15.2496 16.8725C15.2496 17.3284 15.6153 17.698 16.0663 17.698H18.1924L17.9876 18.6919C17.9087 19.0747 17.575 19.349 17.1881 19.349H8.7165V11.0863C9.33238 11.0262 9.86775 10.6169 10.0882 10.0227ZM7.08322 11.094H5.44993C4.99891 11.094 4.63329 11.4636 4.63329 11.9195V18.5235C4.63329 18.9794 4.99891 19.349 5.44993 19.349H7.08322V11.094Z" fill="white"/>
</svg>
