<svg width="24" height="24" viewBox="0 0 24 24" fill="none" xmlns="http://www.w3.org/2000/svg">
<path d="M20.0946 17.6876C19.3372 16.3413 18.0967 14.8164 16.0772 13.9495C14.9223 14.7576 13.5191 15.2333 12.0065 15.2333C10.493 15.2333 9.08988 14.7576 7.93484 13.9495C5.9154 14.8164 4.67491 16.3414 3.91797 17.6876C2.91337 19.4734 3.701 22 5.43841 22C7.17586 22 12.0065 22 12.0065 22C12.0065 22 16.8367 22 18.5742 22C20.3116 22 21.0992 19.4734 20.0946 17.6876Z" fill="white"/>
<path d="M12.0105 12.746C14.977 12.746 17.381 10.5975 17.381 7.94771V6.79826C17.381 4.14848 14.977 2 12.0105 2C9.04361 2 6.63916 4.14848 6.63916 6.7983V7.94775C6.63916 10.5975 9.04365 12.746 12.0105 12.746Z" fill="white"/>
</svg>
