<svg width="24" height="24" viewBox="0 0 24 24" fill="none" xmlns="http://www.w3.org/2000/svg">
<path d="M6.57605 17.3829C2.83495 13.6607 0 9.16317 0 5.45396C0 3.8126 0.556634 2.32633 1.8123 1.12439C2.57605 0.387722 3.45631 0 4.31068 0C5.00971 0 5.65696 0.271406 6.09709 0.891761L8.88026 4.80775C9.32039 5.41519 9.52751 5.91922 9.52751 6.38449C9.52751 6.979 9.17799 7.49596 8.60841 8.09047L7.68932 9.03393C7.54693 9.17609 7.49515 9.3441 7.49515 9.51212C7.49515 9.70598 7.57282 9.88691 7.63754 10.0291C8.05178 10.8304 9.22977 12.2003 10.4984 13.4669C11.7799 14.7334 13.1521 15.9095 13.9547 16.336C14.0841 16.4006 14.2783 16.4782 14.4725 16.4782C14.6408 16.4782 14.822 16.4136 14.9644 16.2714L15.8835 15.3667C16.479 14.7851 17.0097 14.4491 17.5922 14.4491C18.0583 14.4491 18.5761 14.6559 19.1715 15.0695L23.1456 17.8869C23.754 18.3263 24 18.9467 24 19.5929C24 20.4717 23.5728 21.3635 22.8867 22.126C21.7087 23.4184 20.246 24 18.5761 24C14.8608 24 10.3172 21.1179 6.57605 17.3829Z" fill="#B5B5B5"/>
</svg>
